<?xml version="1.0" encoding="utf-8"?>
<svg width="2367" height="734" viewBox="0 0 2367 734" fill="none" xmlns="http://www.w3.org/2000/svg">
  <g clip-path="url(#clip0_0_1)">
    <path d="M1097.6 309.053H868.537C860.943 309.053 853.66 306 848.29 300.567C842.92 295.133 839.904 287.763 839.904 280.079C839.904 272.395 842.92 265.025 848.29 259.592C853.66 254.158 860.943 251.105 868.537 251.105H1097.6C1105.2 251.105 1112.48 254.158 1117.85 259.592C1123.22 265.025 1126.23 272.395 1126.23 280.079C1126.23 287.763 1123.22 295.133 1117.85 300.567C1112.48 306 1105.2 309.053 1097.6 309.053ZM391.319 463.579H124.077C116.483 463.579 109.2 460.527 103.83 455.093C98.4604 449.659 95.4438 442.29 95.4438 434.605C95.4438 426.921 98.4604 419.552 103.83 414.118C109.2 408.684 116.483 405.632 124.077 405.632H391.319C398.913 405.632 406.196 408.684 411.566 414.118C416.935 419.552 419.952 426.921 419.952 434.605C419.952 442.29 416.935 449.659 411.566 455.093C406.196 460.527 398.913 463.579 391.319 463.579Z" fill="#FF9000"/>
    <path d="M754.004 309.048H362.685C278.485 309.048 209.976 239.704 209.976 154.521C209.976 69.3194 278.485 -0.00494593 362.685 -0.00494593H1097.6C1105.19 -0.00494593 1112.48 3.04761 1117.85 8.48123C1123.22 13.9148 1126.23 21.2844 1126.23 28.9687C1126.23 36.653 1123.22 44.0226 1117.85 49.4562C1112.48 54.8899 1105.19 57.9424 1097.6 57.9424H362.685C310.058 57.9424 267.242 101.268 267.242 154.521C267.242 207.756 310.058 251.1 362.685 251.1H754.004C761.598 251.1 768.881 254.153 774.251 259.586C779.621 265.02 782.637 272.39 782.637 280.074C782.637 287.758 779.621 295.128 774.251 300.561C768.881 305.995 761.598 309.048 754.004 309.048ZM1011.7 714.679H28.6331C21.0391 714.679 13.756 711.626 8.38626 706.193C3.01652 700.759 0 693.39 0 685.705C0 678.021 3.01652 670.651 8.38626 665.218C13.756 659.784 21.0391 656.732 28.6331 656.732H1011.7C1064.33 656.732 1107.15 613.406 1107.15 560.153C1107.15 506.899 1064.33 463.574 1011.7 463.574H505.851C498.257 463.574 490.974 460.521 485.604 455.088C480.234 449.654 477.218 442.284 477.218 434.6C477.218 426.916 480.234 419.546 485.604 414.113C490.974 408.679 498.257 405.626 505.851 405.626H1011.7C1095.9 405.626 1164.41 474.951 1164.41 560.153C1164.41 645.335 1095.9 714.679 1011.7 714.679ZM1336.21 249.632V230.413H1383.93V253.476C1383.93 276.539 1393.48 284.227 1410.66 284.227C1425.93 284.227 1437.38 276.539 1437.38 253.476C1437.38 222.474 1416.73 203.313 1394.43 182.664C1368.35 158.442 1340.03 132.173 1340.03 82.4155C1338.12 28.6017 1362.93 -0.236755 1410.66 -0.236755C1460.29 -0.236755 1485.1 28.6017 1485.1 80.5032V90.1032H1437.38V78.5717C1437.38 55.5086 1427.84 45.8893 1412.56 45.8893C1397.29 45.8893 1387.75 55.5086 1387.75 78.5717C1387.75 109.554 1408.4 128.715 1430.7 149.383C1456.77 173.586 1485.1 199.856 1485.1 249.632C1485.1 301.514 1460.29 330.353 1410.66 330.353C1361.02 330.353 1336.21 301.514 1336.21 249.613V249.632ZM1649.26 326.509H1511.83V3.60711H1649.26V49.7332H1563.37V140.073H1632.08V186.199H1563.37V280.383H1649.26V326.509ZM1830.61 288.071C1830.61 303.446 1830.61 314.978 1836.33 326.509H1782.89L1782.52 325.08C1780.75 318.01 1779.07 311.366 1779.07 286.139V236.169C1779.07 205.418 1769.52 195.799 1746.62 195.799H1729.44V326.509H1679.81V3.60711H1756.16C1807.7 3.60711 1830.61 28.6018 1830.61 78.5524V103.547C1830.61 136.229 1821.06 159.292 1798.16 168.912C1822.97 180.443 1830.61 203.487 1830.61 238.101V288.071ZM1777.16 82.4155C1777.16 59.3524 1769.52 49.7332 1752.34 49.7332H1727.53V149.673H1746.62C1765.71 149.673 1777.16 141.985 1777.16 115.098V82.4155ZM1973.77 3.60711H2019.59L1969.95 326.509H1895.51L1845.88 3.60711H1897.42L1935.59 266.92L1973.77 3.60711ZM2042.49 3.60711H2179.93V49.7332H2094.03V140.073H2162.75V186.199H2094.03V280.383H2179.93V326.509H2042.49V3.60711ZM2367 326.509H2313.55L2313.19 325.08C2311.41 318.01 2309.73 311.366 2309.73 286.139V236.169C2309.73 205.418 2300.19 195.799 2277.28 195.799H2260.1V326.509H2210.47V3.60711H2286.83C2338.37 3.60711 2361.27 28.6018 2361.27 78.5524V103.547C2361.27 136.229 2351.73 159.292 2328.82 168.912C2353.64 180.443 2361.27 203.487 2361.27 238.101V288.071C2361.27 303.446 2361.27 314.978 2367 326.509ZM2307.82 82.4155C2307.82 59.3524 2300.19 49.7332 2283.01 49.7332H2258.19V149.673H2277.28C2296.37 149.673 2307.82 141.985 2307.82 115.098V82.4155ZM1487.01 486.019V516.769H1439.29V482.194C1439.29 459.112 1429.74 449.512 1412.56 449.512C1397.29 449.512 1385.84 459.112 1385.84 482.175V657.079C1385.84 680.142 1395.38 687.83 1412.56 687.83C1427.84 687.83 1439.29 680.142 1439.29 657.079V595.578H1416.38V549.452H1487.01V653.236C1487.01 705.137 1462.2 733.975 1412.56 733.975C1362.93 733.975 1338.12 705.137 1338.12 653.236V486.019C1338.12 434.137 1362.93 405.298 1412.56 405.298C1462.2 405.298 1487.01 434.137 1487.01 486.038V486.019ZM1626.36 407.21L1679.81 730.132H1628.27L1618.72 672.474H1557.64L1548.09 730.132H1502.28L1553.82 407.249L1626.36 407.21ZM1613 628.26L1588.18 464.887L1565.27 628.26H1613ZM1675.99 407.23H1828.7V453.356H1777.16V730.112H1727.53V453.356H1675.99V407.23ZM1851.6 407.23H1989.04V453.356H1903.14V543.676H1971.86V589.803H1903.14V683.986H1989.04V730.112H1851.6V407.23Z" fill="#0684BD"/>
  </g>
  <defs>
    <clipPath id="clip0_0_1">
      <rect width="2367" height="734" fill="white"/>
    </clipPath>
  </defs>
</svg>